<svg xmlns="http://www.w3.org/2000/svg" width="50" height="40"><title>noun_597503_cc</title><g fill="#f68300" fill-rule="evenodd"><path d="M47.89 2.034v9.225c0 .096.006-.03.074-.03h-6.647l1.025 1.026v-5.61c0-.558-.466-1.024-1.025-1.024H8.67c-.558 0-1.024.466-1.024 1.025v5.61L8.67 11.23H2.04c-.01 0 .06.056.06.065V2.04c0 .074-.14.07.002.07h45.796c.13 0 0 .01-.006-.076.037.557.438 1.025 1.025 1.025.53 0 1.063-.468 1.026-1.026C49.856.757 48.894.06 47.693.06H2.177C.99.06.047.893.047 2.117v9.06c0 .97.533 1.715 1.45 2.033.38.133.907.072 1.305.072h5.87c.558 0 1.025-.467 1.025-1.026v-5.61L8.67 7.674h32.647l-1.025-1.026v5.61c0 .558.466 1.025 1.025 1.025h6.633c1.094 0 1.99-.903 1.99-1.996V2.034c0-1.322-2.05-1.322-2.05 0zM27.2 34.046v-5.254c0-1.322-2.05-1.322-2.05 0v5.254c0 1.323 2.05 1.323 2.05 0zm-8.337-5.67v4.846c0-.212.35-.2.047-.2h-4.652c-.002 0 .16.163.16.16v-4.766c0-.118-.013.084-.06.114-.13.08-.187.048-.052.048h4.758c-.128 0-.192-.083-.202-.2.045.556.433 1.024 1.026 1.024.525 0 1.07-.467 1.025-1.025-.092-1.148-.908-1.85-2.042-1.85h-4.085c-.727 0-1.435.03-1.957.638-.487.567-.46 1.226-.46 1.915v4.024c0 1.052.76 1.967 1.86 1.967h2.942c1.047 0 2.522.25 3.284-.636.705-.82.46-2.29.46-3.296v-2.76c0-1.324-2.052-1.324-2.052 0zm16.572 5.67v-14.7c0-1.322-2.05-1.322-2.05 0v14.7c0 1.322 2.05 1.322 2.05 0zM27.2 24.6v-5.253c0-1.323-2.05-1.323-2.05 0V24.6c0 1.323 2.05 1.323 2.05 0z"/><path d="M27.2 15.155V9.902c0-1.323-2.05-1.323-2.05 0v5.253c0 1.323 2.05 1.323 2.05 0z"/><path d="M7.646 6.647V34.28c0 1.082.177 2.113.74 3.062.925 1.56 2.668 2.452 4.457 2.452h24.315c1.864 0 3.56-.958 4.51-2.562.904-1.526.674-3.49.674-5.196V6.646c0-.558-.466-1.024-1.025-1.024H8.67c-1.32 0-1.32 2.05 0 2.05h32.647l-1.025-1.025V34.28c0 .86-.116 1.66-.676 2.336-.705.85-1.646 1.127-2.706 1.127H12.745c-1.678 0-3.048-1.392-3.048-3.064V6.645c0-1.32-2.05-1.32-2.05 0z"/><path d="M18.863 33.222c.016-.21.34-.2.047-.2h-4.652c-.002 0 .16.163.16.16V28.53c0-.294.01.03-.2.048.127-.01.26 0 .386 0h4.306c.3 0-.047-.004-.047-.19v4.834c0 1.323 2.05 1.323 2.05 0v-4.845c0-1.152-.974-1.85-2.042-1.85h-4.085c-.727 0-1.435.03-1.957.638-.487.567-.46 1.226-.46 1.915v3.575c0 .474-.01.892.183 1.345.32.755 1.09 1.07 1.86 1.07h4.592c1.09 0 1.827-.8 1.91-1.848.047-.558-.5-1.025-1.024-1.025-.593 0-.98.468-1.025 1.025z"/><path d="M18.863 28.377v4.845c0-.212.35-.2.047-.2h-4.652c-.002 0 .16.163.16.16v-4.766c0-.118-.013.084-.06.114-.13.08-.187.048-.052.048h4.758c-.128 0-.192-.083-.202-.2.045.556.433 1.024 1.026 1.024.525 0 1.07-.467 1.025-1.025-.092-1.148-.908-1.85-2.042-1.85h-4.085c-.727 0-1.435.03-1.957.638-.487.567-.46 1.226-.46 1.915v4.024c0 1.052.76 1.967 1.86 1.967h2.942c1.047 0 2.522.25 3.284-.636.705-.82.46-2.29.46-3.296v-2.76c0-1.324-2.052-1.324-2.052 0zM44.18 5.622H5.808c-1.323 0-1.323 2.05 0 2.05H44.18c1.323 0 1.323-2.05 0-2.05z"/></g></svg>