<svg xmlns="http://www.w3.org/2000/svg" xmlns:xlink="http://www.w3.org/1999/xlink" width="36.135" height="44.51" viewBox="0 0 36.135 44.51"><defs><path id="a" d="M23.466 2.344c.361-.285.561-.442 1.056-.442.494 0 .691.157 1.053.442.153.123.321.258.526.385l-4.527 5.273h-7.019l-4.521-5.275c.201-.127.373-.26.523-.383.357-.285.559-.442 1.049-.442.495 0 .691.157 1.051.442.446.356 1.056.842 2.175.842 1.121 0 1.731-.485 2.175-.842.361-.285.561-.442 1.055-.442.49 0 .688.157 1.047.44.446.356 1.056.844 2.179.844s1.732-.486 2.178-.842M24.441 0c-1.071.021-1.663.492-2.099.838-.362.287-.56.444-1.056.444-.494 0-.693-.157-1.054-.446C19.799.492 19.209.021 18.139 0h-.156c-1.072.021-1.664.492-2.101.838-.358.287-.558.444-1.05.444-.491 0-.69-.157-1.048-.444C13.349.492 12.758.021 11.687 0h-.158C10.46.021 9.868.492 9.432.838c-.36.287-.557.444-1.051.444-.361 0-.69.22-.841.562a.975.975 0 0 0 .15 1.02l5.756 6.72a.913.913 0 0 0 .69.322h7.849a.905.905 0 0 0 .689-.32l5.769-6.722a.97.97 0 0 0 .15-1.02.921.921 0 0 0-.841-.562c-.494 0-.692-.157-1.055-.444C26.264.492 25.672.021 24.601 0h-.16z"/></defs><use xlink:href="#a" overflow="visible" fill="#f68300"/><clipPath id="b"><use xlink:href="#a" overflow="visible"/></clipPath><path clip-path="url(#b)" fill="#f68300" d="M2.458-5.002h31.217v19.906H2.458z"/><text transform="translate(9.444 33.389)" fill="#f68300" font-family="'Lato-Light'" font-size="20.588">%</text><g><defs><path id="c" d="M3.032 40.309c-1.59-.822-1.336-1.619-.711-3.076.181-.428.354-.827.417-1.223.068-.421.137-1.709.269-4.138.232-4.408.584-11.069 1.104-13.353.5-2.18 6.32-6.157 10.016-8.244h7.883c3.698 2.087 9.52 6.062 10.017 8.244.515 2.271.869 8.898 1.101 13.281.132 2.475.203 3.785.273 4.207.062.396.233.8.418 1.227.623 1.457.872 2.254-.712 3.074-1.229.633-7.711 2.299-15.036 2.299-8.636 0-13.882-1.702-15.039-2.298M13.894 8.372a.895.895 0 0 0-.438.115c-1.05.584-10.273 5.821-11.137 9.597-.561 2.447-.916 9.209-1.154 13.684-.098 1.848-.19 3.594-.245 3.931-.024.156-.164.477-.284.762-.54 1.26-1.665 3.88 1.573 5.551 1.35.694 6.823 2.499 15.861 2.499 7.23 0 14.167-1.626 15.859-2.499 3.23-1.671 2.111-4.289 1.573-5.546-.121-.285-.26-.607-.285-.77-.056-.34-.15-2.116-.249-3.997-.237-4.451-.595-11.179-1.148-13.614-.857-3.773-10.088-9.013-11.136-9.597a.917.917 0 0 0-.44-.115h-8.35z"/></defs><use xlink:href="#c" overflow="visible" fill="#f68300"/><clipPath id="d"><use xlink:href="#c" overflow="visible"/></clipPath><path clip-path="url(#d)" fill="#f68300" d="M-5 3.372h46.135V49.51H-5z"/></g></svg>