<svg xmlns="http://www.w3.org/2000/svg" xmlns:xlink="http://www.w3.org/1999/xlink" width="47.554" height="46.088" viewBox="0 0 47.554 46.088"><defs><path id="a" d="M23.469 11.306c-4.703 0-8.52-1.537-8.52-3.432v3.432c0 1.898 3.816 3.432 8.52 3.432 4.706 0 8.52-1.534 8.52-3.432V7.873c-.003 1.897-3.814 3.433-8.52 3.433"/></defs><use xlink:href="#a" overflow="visible" fill="#f68300"/><clipPath id="b"><use xlink:href="#a" overflow="visible"/></clipPath><path clip-path="url(#b)" fill="#f68300" d="M9.948 2.873h27.04v16.865H9.948z"/><defs><path id="c" d="M15.802 3.432c0-1.051 2.985-2.576 7.667-2.576s7.664 1.525 7.664 2.576c-.001 1.05-2.982 2.574-7.664 2.574s-7.667-1.524-7.667-2.574m-.853.001v3.433c0 1.898 3.816 3.433 8.52 3.433 4.706 0 8.52-1.537 8.52-3.433V3.433C31.986 1.535 28.175 0 23.469 0c-4.703 0-8.52 1.536-8.52 3.433"/></defs><use xlink:href="#c" overflow="visible" fill="#f68300"/><clipPath id="d"><use xlink:href="#c" overflow="visible"/></clipPath><path clip-path="url(#d)" fill="#f68300" d="M9.948-5h27.04v20.298H9.948z"/><defs><path id="e" d="M23.469 15.775c-1.773 0-3.416-.218-4.777-.59.279.519.441 1.091.441 1.722v1.808c1.277.307 2.746.495 4.336.495 4.706 0 8.52-1.537 8.52-3.435v-3.434c-.003 1.898-3.814 3.434-8.52 3.434"/></defs><use xlink:href="#e" overflow="visible" fill="#f68300"/><clipPath id="f"><use xlink:href="#e" overflow="visible"/></clipPath><path clip-path="url(#f)" fill="#f68300" d="M13.691 7.34h23.297v16.869H13.691z"/><defs><path id="g" d="M23.469 20.244c-1.59 0-3.059-.188-4.336-.494v2.429c2.079-1.27 5.213-1.876 8.217-1.876 1.521 0 3.071.158 4.506.471.066-.173.131-.349.131-.532v-3.434c-.001 1.898-3.812 3.436-8.518 3.436"/></defs><use xlink:href="#g" overflow="visible" fill="#f68300"/><clipPath id="h"><use xlink:href="#g" overflow="visible"/></clipPath><path clip-path="url(#h)" fill="#f68300" d="M14.133 11.808h22.855v15.37H14.133z"/><g><defs><path id="i" d="M27.35 33.718c-4.705 0-8.521-1.535-8.521-3.432v3.432c0 1.899 3.817 3.433 8.521 3.433 4.707 0 8.521-1.533 8.521-3.433v-3.432c0 1.897-3.814 3.432-8.521 3.432"/></defs><use xlink:href="#i" overflow="visible" fill="#f68300"/><clipPath id="j"><use xlink:href="#i" overflow="visible"/></clipPath><path clip-path="url(#j)" fill="#f68300" d="M13.83 25.287h27.041v16.864H13.83z"/></g><g><defs><path id="k" d="M27.35 38.185c-4.705 0-8.521-1.538-8.521-3.433v3.433c0 1.897 3.817 3.437 8.521 3.437 4.707 0 8.521-1.539 8.521-3.437v-3.433c0 1.897-3.814 3.433-8.521 3.433"/></defs><use xlink:href="#k" overflow="visible" fill="#f68300"/><clipPath id="l"><use xlink:href="#k" overflow="visible"/></clipPath><path clip-path="url(#l)" fill="#f68300" d="M13.83 29.752h27.041v16.869H13.83z"/></g><g><defs><path id="m" d="M27.35 42.655c-4.705 0-8.521-1.536-8.521-3.432v3.432c0 1.896 3.817 3.434 8.521 3.434 4.707 0 8.521-1.538 8.521-3.434v-3.432c0 1.896-3.814 3.432-8.521 3.432"/></defs><use xlink:href="#m" overflow="visible" fill="#f68300"/><clipPath id="n"><use xlink:href="#m" overflow="visible"/></clipPath><path clip-path="url(#n)" fill="#f68300" d="M13.83 34.223h27.041v16.865H13.83z"/></g><g><defs><path id="o" d="M19.684 25.843c0-1.052 2.985-2.574 7.666-2.574 4.683 0 7.668 1.522 7.668 2.574 0 1.051-2.985 2.575-7.668 2.575-4.682 0-7.666-1.524-7.666-2.575m-.855.001v3.432c0 1.896 3.817 3.435 8.521 3.435 4.707 0 8.521-1.538 8.521-3.435v-3.432c0-1.898-3.814-3.434-8.521-3.434-4.705 0-8.521 1.538-8.521 3.434"/></defs><use xlink:href="#o" overflow="visible" fill="#f68300"/><clipPath id="p"><use xlink:href="#o" overflow="visible"/></clipPath><path clip-path="url(#p)" fill="#f68300" d="M13.83 17.41h27.041v20.3H13.83z"/></g><g><defs><path id="q" d="M8.52 24.782c-4.705 0-8.52-1.537-8.52-3.433v3.433c0 1.899 3.814 3.433 8.52 3.433 4.707 0 8.521-1.533 8.521-3.433v-3.433c-.002 1.896-3.814 3.433-8.521 3.433"/></defs><use xlink:href="#q" overflow="visible" fill="#f68300"/><clipPath id="r"><use xlink:href="#q" overflow="visible"/></clipPath><path clip-path="url(#r)" fill="#f68300" d="M-5 16.349h27.041v16.865H-5z"/></g><g><defs><path id="s" d="M8.52 29.249c-4.705 0-8.52-1.534-8.52-3.432v3.432c0 1.898 3.814 3.435 8.52 3.435 4.707 0 8.521-1.536 8.521-3.435v-3.432c-.002 1.898-3.814 3.432-8.521 3.432"/></defs><use xlink:href="#s" overflow="visible" fill="#f68300"/><clipPath id="t"><use xlink:href="#s" overflow="visible"/></clipPath><path clip-path="url(#t)" fill="#f68300" d="M-5 20.818h27.041v16.866H-5z"/></g><g><defs><path id="u" d="M8.52 33.718c-4.705 0-8.52-1.535-8.52-3.432v3.432c0 1.899 3.814 3.433 8.52 3.433 4.707 0 8.521-1.536 8.521-3.433v-3.432c-.002 1.897-3.814 3.432-8.521 3.432"/></defs><use xlink:href="#u" overflow="visible" fill="#f68300"/><clipPath id="v"><use xlink:href="#u" overflow="visible"/></clipPath><path clip-path="url(#v)" fill="#f68300" d="M-5 25.287h27.041v16.864H-5z"/></g><g><defs><path id="w" d="M8.52 38.187c-4.705 0-8.52-1.538-8.52-3.433v3.433c0 1.896 3.814 3.435 8.52 3.435 4.707 0 8.521-1.539 8.521-3.435v-3.433c-.002 1.895-3.814 3.433-8.521 3.433"/></defs><use xlink:href="#w" overflow="visible" fill="#f68300"/><clipPath id="x"><use xlink:href="#w" overflow="visible"/></clipPath><path clip-path="url(#x)" fill="#f68300" d="M-5 29.753h27.041V46.62H-5z"/></g><g><defs><path id="y" d="M8.52 42.655c-4.705 0-8.52-1.536-8.52-3.432v3.432c0 1.897 3.814 3.434 8.52 3.434 4.707 0 8.521-1.536 8.521-3.434v-3.432c-.002 1.896-3.814 3.432-8.521 3.432"/></defs><use xlink:href="#y" overflow="visible" fill="#f68300"/><clipPath id="z"><use xlink:href="#y" overflow="visible"/></clipPath><path clip-path="url(#z)" fill="#f68300" d="M-5 34.223h27.041v16.865H-5z"/></g><g><defs><path id="A" d="M.854 16.907c0-1.052 2.985-2.575 7.666-2.575 4.683 0 7.668 1.523 7.668 2.575 0 1.05-2.987 2.575-7.668 2.575S.854 17.957.854 16.907m-.854 0v3.433c0 1.898 3.814 3.433 8.52 3.433 4.707 0 8.521-1.537 8.521-3.433v-3.433c-.002-1.897-3.814-3.433-8.521-3.433-4.706 0-8.52 1.536-8.52 3.433"/></defs><use xlink:href="#A" overflow="visible" fill="#f68300"/><clipPath id="B"><use xlink:href="#A" overflow="visible"/></clipPath><path clip-path="url(#B)" fill="#f68300" d="M-5 8.474h27.041v20.299H-5z"/></g><path fill="#f68300" d="M35.871 14.809h3.527v27.063h4.629V14.809h3.527L41.713 4.672z"/></svg>