<svg xmlns="http://www.w3.org/2000/svg" xmlns:xlink="http://www.w3.org/1999/xlink" width="26.503" height="22.505" viewBox="0 0 26.503 22.505"><defs><path id="a" d="M0 0h26.503v22.505H0z"/></defs><clipPath id="b"><use xlink:href="#a" overflow="visible"/></clipPath><path clip-path="url(#b)" fill="#f68300" d="M10.693 6.501c-4.064 0-8.384-1.139-8.384-3.25S6.629 0 10.693 0s8.383 1.14 8.383 3.251-4.318 3.25-8.383 3.25m0-5.501C6.118 1 3.31 2.312 3.31 3.251s2.809 2.25 7.384 2.25c4.574 0 7.383-1.311 7.383-2.25S15.268 1 10.693 1"/><path clip-path="url(#b)" fill="#f68300" d="M10.693 6.501c-4.064 0-8.384-1.139-8.384-3.25a.5.5 0 0 1 1 0c0 .939 2.809 2.25 7.384 2.25 4.574 0 7.383-1.311 7.383-2.25a.5.5 0 0 1 1 0c0 2.111-4.318 3.25-8.383 3.25M10.693 9.606c-4.064 0-8.384-1.139-8.384-3.25a.5.5 0 0 1 1 0c0 .939 2.809 2.25 7.384 2.25.458 0 .907-.014 1.344-.04a.494.494 0 0 1 .529.469.5.5 0 0 1-.469.529c-.455.028-.924.042-1.404.042"/><path clip-path="url(#b)" fill="#f68300" d="M2.81 6.856a.5.5 0 0 1-.5-.5V3.289a.5.5 0 1 1 1 0v3.068a.5.5 0 0 1-.5.499M18.576 6.536a.5.5 0 0 1-.5-.5V3.288a.5.5 0 0 1 1 0v2.748a.5.5 0 0 1-.5.5M10.115 15.571h-.013c-3.707-.095-6.66-1.023-7.522-2.367a.5.5 0 1 1 .842-.541c.563.878 3.048 1.815 6.706 1.908a.5.5 0 0 1-.013 1M11.072 18.681c-4.308 0-8.763-1.214-8.763-3.246a.5.5 0 0 1 1 0c0 .895 3.096 2.246 7.763 2.246a.5.5 0 0 1 0 1"/><path clip-path="url(#b)" fill="#f68300" d="M8.384 10.721C4.32 10.721 0 9.582 0 7.471c0-.677.452-1.644 2.607-2.404a.5.5 0 0 1 .332.943C1.743 6.432 1 6.992 1 7.471c0 .939 2.809 2.25 7.384 2.25.906 0 1.791-.054 2.631-.16a.499.499 0 1 1 .125.992c-.881.111-1.808.168-2.756.168M8.384 13.826C4.32 13.826 0 12.688 0 10.576a.5.5 0 0 1 1 0c0 .939 2.809 2.25 7.384 2.25.603 0 1.203-.024 1.783-.071a.5.5 0 0 1 .082.996 22.83 22.83 0 0 1-1.865.075"/><path clip-path="url(#b)" fill="#f68300" d="M.5 11.076a.5.5 0 0 1-.5-.5V7.508a.5.5 0 1 1 1 0v3.068a.5.5 0 0 1-.5.5M2.81 16.213a.5.5 0 0 1-.5-.5v-2.69a.5.5 0 0 1 1 0v2.69a.5.5 0 0 1-.5.5M18.119 22.505c-4.623 0-8.384-3.761-8.384-8.384 0-4.622 3.761-8.383 8.384-8.383s8.384 3.761 8.384 8.383c0 4.623-3.761 8.384-8.384 8.384m0-15.767c-4.071 0-7.384 3.312-7.384 7.383s3.312 7.384 7.384 7.384 7.384-3.312 7.384-7.384c0-4.071-3.313-7.383-7.384-7.383"/><path clip-path="url(#b)" fill="#f68300" d="M18.076 6.148a7.973 7.973 0 1 0 0 15.947 7.973 7.973 0 0 0 0-15.947m3.355 8.572h-2.719v2.859H17.44V14.72h-2.717v-1.223h2.717v-2.834h1.272v2.834h2.719v1.223z"/></svg>