<svg xmlns="http://www.w3.org/2000/svg" width="37" height="41.502" viewBox="0 0 37 41.502"><path fill="none" stroke="#f68300" stroke-width="2" stroke-miterlimit="10" d="M30.044 10.502h1.358c.882 0 1.599.672 1.599 1.504v2.996l-.018.001-2.939-4.501zm-19.24 0H3.802c-2.002 0-2.801 1.504-2.801 2.625v3.375l25.001-1.172-22.211-.029 7.013-4.799z"/><path fill="none" stroke="#f68300" stroke-width="2" stroke-miterlimit="10" d="M3.791 15.302L24.1 1.402l9.103 13.937M3.386 15.502h30.227c1.319 0 2.387 1.119 2.387 2.501v20c0 1.38-1.068 2.499-2.387 2.499H3.386C2.069 40.502 1 39.383 1 38.003v-20c0-1.382 1.069-2.501 2.386-2.501z"/><path fill="none" stroke="#f68300" stroke-width="2" stroke-miterlimit="10" d="M36 32.502h-3.99A4.01 4.01 0 0 1 28 28.503a4 4 0 0 1 4.01-4.001H36"/><path fill="#FFF" stroke="#f68300" stroke-miterlimit="10" d="M32 27.523h2v2.001h-2z"/></svg>