<svg xmlns="http://www.w3.org/2000/svg" xmlns:xlink="http://www.w3.org/1999/xlink" width="32.958" height="43.79" viewBox="0 0 32.958 43.79"><defs><path id="a" d="M24.973 1.884a.942.942 0 1 0 0 1.884h6.103v38.138H1.883V3.768H7.78a.942.942 0 0 0 0-1.884H.941A.942.942 0 0 0 0 2.825v40.022c0 .521.422.943.941.943h31.075a.942.942 0 0 0 .941-.943V2.825a.941.941 0 0 0-.941-.941h-7.043z"/></defs><use xlink:href="#a" overflow="visible" fill="#f68300"/><clipPath id="b"><use xlink:href="#a" overflow="visible"/></clipPath><path clip-path="url(#b)" fill="#f68300" d="M-5-3.116h42.958v51.905H-5z"/><defs><path id="c" d="M8.946 3.061c0-.65.526-1.177 1.177-1.177h12.712a1.178 1.178 0 0 1 0 2.354H10.123c-.65 0-1.177-.527-1.177-1.177M10.123 0a3.064 3.064 0 0 0-3.061 3.061 3.065 3.065 0 0 0 3.062 3.061h12.712a3.064 3.064 0 0 0 3.06-3.061A3.063 3.063 0 0 0 22.836 0H10.123z"/></defs><use xlink:href="#c" overflow="visible" fill="#f68300"/><clipPath id="d"><use xlink:href="#c" overflow="visible"/></clipPath><path clip-path="url(#d)" fill="#f68300" d="M2.062-5h28.834v16.12H2.062z"/><g><defs><path id="e" d="M7.898 13.46a.872.872 0 0 0-.873.872v2.173c0 .479.391.869.873.869h2.173a.868.868 0 0 0 .868-.869v-2.173a.868.868 0 0 0-.868-.872H7.898z"/></defs><use xlink:href="#e" overflow="visible" fill="#f68300"/><clipPath id="f"><use xlink:href="#e" overflow="visible"/></clipPath><path clip-path="url(#f)" fill="#f68300" d="M2.025 8.46h13.914v13.914H2.025z"/></g><g><defs><path id="g" d="M13.838 14.476a.942.942 0 0 0 0 1.882h12.095a.941.941 0 0 0 0-1.882H13.838z"/></defs><use xlink:href="#g" overflow="visible" fill="#f68300"/><clipPath id="h"><use xlink:href="#g" overflow="visible"/></clipPath><path clip-path="url(#h)" fill="#f68300" d="M7.896 9.475h23.979v11.884H7.896z"/></g><g><defs><path id="i" d="M7.898 26.383a.869.869 0 0 0-.873.868v2.174c0 .481.391.871.873.871h2.173c.482 0 .868-.39.868-.871v-2.174a.865.865 0 0 0-.868-.868H7.898z"/></defs><use xlink:href="#i" overflow="visible" fill="#f68300"/><clipPath id="j"><use xlink:href="#i" overflow="visible"/></clipPath><path clip-path="url(#j)" fill="#f68300" d="M2.025 21.383h13.914v13.914H2.025z"/></g><g><defs><path id="k" d="M13.838 27.397a.943.943 0 0 0 0 1.884h12.095a.942.942 0 0 0 0-1.884H13.838z"/></defs><use xlink:href="#k" overflow="visible" fill="#f68300"/><clipPath id="l"><use xlink:href="#k" overflow="visible"/></clipPath><path clip-path="url(#l)" fill="#f68300" d="M7.896 22.397h23.979v11.884H7.896z"/></g><g><defs><path id="m" d="M7.898 19.92a.872.872 0 0 0-.873.872v2.173c0 .478.391.872.873.872h2.173a.871.871 0 0 0 .868-.872v-2.173a.867.867 0 0 0-.868-.872H7.898z"/></defs><use xlink:href="#m" overflow="visible" fill="#f68300"/><clipPath id="n"><use xlink:href="#m" overflow="visible"/></clipPath><path clip-path="url(#n)" fill="#f68300" d="M2.025 14.92h13.914v13.917H2.025z"/></g><g><defs><path id="o" d="M13.838 20.938a.942.942 0 0 0 0 1.883h12.095a.942.942 0 0 0 0-1.883H13.838z"/></defs><use xlink:href="#o" overflow="visible" fill="#f68300"/><clipPath id="p"><use xlink:href="#o" overflow="visible"/></clipPath><path clip-path="url(#p)" fill="#f68300" d="M7.896 15.938h23.979v11.883H7.896z"/></g></svg>