<svg xmlns="http://www.w3.org/2000/svg" xmlns:xlink="http://www.w3.org/1999/xlink" width="42.971" height="42.886" viewBox="0 0 42.971 42.886"><path fill-rule="evenodd" clip-rule="evenodd" fill="#f68300" d="M40.811 13.352c0-6.162-4.98-11.175-11.101-11.175S18.609 7.189 18.609 13.352s4.98 11.175 11.101 11.175 11.101-5.013 11.101-11.175m-12.362 13.28c-3.489-.52-6.561-2.396-8.691-5.092H1.574v20.086c0 .187.148.339.328.339h26.219a.335.335 0 0 0 .328-.339V26.632zM5.036 12.498h2.556v-1.594c0-.71-.574-1.287-1.277-1.287-.705 0-1.278.578-1.278 1.287v1.594zm9.066 0h2.377c.032-.503.092-.998.179-1.484v-.11c0-.709-.573-1.286-1.277-1.286-.705 0-1.278.577-1.278 1.286v1.594zM29.71 26.702v13.956a2.223 2.223 0 0 1-2.213 2.228H2.212A2.223 2.223 0 0 1 0 40.658V17.322l.01-3.971c0-.472.604-.854 1.352-.854h2.412v-1.594a2.553 2.553 0 0 1 2.541-2.56 2.553 2.553 0 0 1 2.541 2.56v1.594h3.982v-1.594a2.554 2.554 0 0 1 2.542-2.56c.692 0 1.312.287 1.769.74C18.921 3.81 23.88 0 29.71 0c7.313 0 13.261 5.989 13.261 13.351 0 7.361-5.948 13.351-13.261 13.351"/><path fill="#f68300" d="M1.574 41.626V21.539h18.184c2.131 2.697 5.202 4.574 8.691 5.091v14.996a.334.334 0 0 1-.328.338H1.902a.335.335 0 0 1-.328-.338m3.462-30.723c0-.709.575-1.286 1.278-1.286s1.277.577 1.277 1.286v1.595H5.036v-1.595zm9.066 0c0-.708.573-1.286 1.278-1.286.704 0 1.277.577 1.277 1.286v.11a13.44 13.44 0 0 0-.179 1.485h-2.377v-1.595zm4.507 2.448c0-6.162 4.979-11.175 11.101-11.175 6.12 0 11.101 5.013 11.101 11.175 0 6.162-4.98 11.175-11.101 11.175s-11.101-5.013-11.101-11.175m-1.461-4.268a2.499 2.499 0 0 0-1.769-.74 2.554 2.554 0 0 0-2.542 2.56v1.595H8.855v-1.595c0-1.412-1.14-2.56-2.541-2.56a2.553 2.553 0 0 0-2.541 2.56v1.595H1.361c-.746 0-1.352.381-1.352.853l-.01 3.972v23.336c0 1.228.993 2.226 2.212 2.226h25.286a2.222 2.222 0 0 0 2.212-2.226V26.702c7.312 0 13.261-5.989 13.261-13.351C42.971 5.99 37.021 0 29.71 0c-5.829 0-10.789 3.809-12.562 9.083"/><defs><path id="a" d="M32.745 18.022a.786.786 0 0 1-.323-.236 1.18 1.18 0 0 1-.212-.437 2.624 2.624 0 0 1-.075-.674c0-.278.026-.509.075-.695a1.25 1.25 0 0 1 .212-.452c.092-.114.199-.197.323-.247s.257-.075.401-.075c.143 0 .277.025.403.075.127.05.237.133.331.247.092.115.165.265.219.452.051.186.078.417.078.695 0 .268-.027.492-.078.674a1.217 1.217 0 0 1-.219.437.804.804 0 0 1-.331.236 1.125 1.125 0 0 1-.403.072c-.144 0-.277-.024-.401-.072m-.554-3.78a2.215 2.215 0 0 0-.756.519c-.211.225-.377.5-.498.825a3.145 3.145 0 0 0-.179 1.089c0 .392.06.745.179 1.061.121.315.287.584.498.806.215.222.465.394.756.516a2.47 2.47 0 0 0 1.865 0c.291-.122.547-.294.767-.516.219-.222.395-.491.526-.806.131-.316.196-.669.196-1.061a3.12 3.12 0 0 0-.182-1.089 2.405 2.405 0 0 0-.503-.825 2.185 2.185 0 0 0-.758-.519 2.476 2.476 0 0 0-.957-.183c-.344 0-.661.061-.954.183m1.521-5.494c-.153 0-.272.029-.354.087a1.134 1.134 0 0 0-.219.193l-7.69 10.084h1.319a.61.61 0 0 0 .315-.076.81.81 0 0 0 .222-.19l7.697-10.098h-1.29zm-6.823 3.849a.76.76 0 0 1-.318-.236 1.247 1.247 0 0 1-.211-.434 2.394 2.394 0 0 1-.08-.67c0-.278.027-.509.08-.695a1.32 1.32 0 0 1 .211-.452.77.77 0 0 1 .318-.247c.125-.05.26-.075.402-.075s.277.025.404.075.236.133.33.247c.093.115.168.265.222.452.055.186.082.417.082.695 0 .268-.027.491-.082.67a1.205 1.205 0 0 1-.222.434c-.094.11-.203.188-.33.236s-.262.072-.404.072-.277-.024-.402-.072m-.551-3.773a2.177 2.177 0 0 0-.756.519c-.214.225-.379.5-.499.825-.12.325-.179.687-.179 1.089 0 .392.059.746.179 1.061s.285.584.499.806c.212.222.464.393.756.512.291.12.609.179.953.179.314 0 .618-.059.91-.179.291-.119.547-.29.766-.512.221-.222.396-.491.527-.806s.197-.669.197-1.061c0-.402-.06-.764-.18-1.089a2.327 2.327 0 0 0-.501-.825 2.218 2.218 0 0 0-.764-.519c-.294-.122-.612-.183-.956-.183s-.661.061-.952.183"/></defs><use xlink:href="#a" overflow="visible" fill="#f68300"/><clipPath id="b"><use xlink:href="#a" overflow="visible"/></clipPath><path clip-path="url(#b)" fill="#f68300" d="M19.904 3.641h20.643v20.6H19.904z"/><path fill="#f68300" d="M4.964 26.096h4.345v4.34H4.964zM12.48 26.096h4.34v4.34h-4.34zM19.993 26.096h4.34v4.34h-4.34zM4.964 33.068h4.345v4.34H4.964zM12.48 33.068h4.34v4.34h-4.34zM19.993 33.068h4.34v4.34h-4.34z"/></svg>