<svg xmlns="http://www.w3.org/2000/svg" xmlns:xlink="http://www.w3.org/1999/xlink" width="24.332" height="14.168" viewBox="0 0 24.332 14.168"><defs><path id="a" d="M0 0h24.332v14.168H0z"/></defs><clipPath id="b"><use xlink:href="#a" overflow="visible"/></clipPath><path clip-path="url(#b)" fill="#f68300" d="M7.084 14.168C3.178 14.168 0 10.99 0 7.084S3.178 0 7.084 0a7.12 7.12 0 0 1 6.242 3.75H21a3.337 3.337 0 0 1 3.332 3.334 3.335 3.335 0 0 1-2.889 3.29l-.245.033-.175-.174-1.02-1.159-1.33 1.516-1.33-1.516-1.143 1.301-.263.043h-2.612a7.118 7.118 0 0 1-6.241 3.75M7.084 1A6.091 6.091 0 0 0 1 7.084a6.092 6.092 0 0 0 6.084 6.084 6.037 6.037 0 0 0 5.484-3.466l.136-.284h3.007l1.633-1.859 1.33 1.516 1.33-1.516 1.561 1.776a2.333 2.333 0 0 0 1.768-2.251 2.336 2.336 0 0 0-2.332-2.334h-8.296l-.136-.284A6.04 6.04 0 0 0 7.084 1"/><path clip-path="url(#b)" fill="#f68300" d="M5.207 9a1.918 1.918 0 0 1-1.916-1.916c0-1.057.859-1.916 1.916-1.916s1.916.859 1.916 1.916A1.918 1.918 0 0 1 5.207 9m0-2.832a.917.917 0 0 0 0 1.832.917.917 0 0 0 0-1.832"/></svg>