<svg xmlns="http://www.w3.org/2000/svg" width="17.5" height="23.25" viewBox="0 0 17.5 23.25"><g fill="#f68300"><path d="M17 23.25H.5a.5.5 0 0 1-.5-.5V1.5A.5.5 0 0 1 .5 1h3.631a.5.5 0 0 1 0 1H1v20.25h15.5V2h-3.24a.5.5 0 0 1 0-1H17a.5.5 0 0 1 .5.5v21.25a.5.5 0 0 1-.5.5"/><path d="M12.125 3.25h-6.75c-.896 0-1.625-.729-1.625-1.625S4.479 0 5.375 0h6.75c.896 0 1.625.729 1.625 1.625s-.729 1.625-1.625 1.625M5.375 1a.625.625 0 0 0 0 1.25h6.75a.625.625 0 0 0 0-1.25h-6.75zM5.348 7.146H4.194a.463.463 0 0 0-.463.463v1.154c0 .254.207.461.463.461h1.154a.46.46 0 0 0 .461-.461V7.609a.462.462 0 0 0-.461-.463M13.77 8.686H7.348a.5.5 0 0 1 0-1h6.422a.5.5 0 0 1 0 1M5.348 14.008H4.194a.46.46 0 0 0-.463.461v1.154c0 .256.207.463.463.463h1.154a.46.46 0 0 0 .461-.463v-1.154a.46.46 0 0 0-.461-.461M13.77 15.547H7.348a.5.5 0 0 1 0-1h6.422a.5.5 0 0 1 0 1M5.348 10.576H4.194a.463.463 0 0 0-.463.463v1.154c0 .254.207.463.463.463h1.154a.462.462 0 0 0 .461-.463v-1.154a.46.46 0 0 0-.461-.463M13.77 12.117H7.348a.5.5 0 0 1 0-1h6.422a.5.5 0 0 1 0 1"/></g></svg>