<svg xmlns="http://www.w3.org/2000/svg" width="17.332" height="21.529" viewBox="0 0 17.332 21.529"><g fill="#f68300"><path d="M13.804 8.67H3.312a.5.5 0 1 1 0-1h10.492a.5.5 0 0 1 0 1M11.553 10.649H3.312a.5.5 0 1 1 0-1h8.241a.5.5 0 0 1 0 1M7.848 15.353H3.312a.5.5 0 0 1 0-1h4.536a.5.5 0 0 1 0 1M7.848 17.269H3.312a.5.5 0 0 1 0-1h4.536a.5.5 0 0 1 0 1M11.679 17.478c-1.482 0-2.688-1.206-2.688-2.688s1.206-2.688 2.688-2.688c1.481 0 2.688 1.206 2.688 2.688s-1.207 2.688-2.688 2.688m0-4.375c-.931 0-1.688.757-1.688 1.688s.758 1.688 1.688 1.688 1.687-.757 1.687-1.688-.757-1.688-1.687-1.688"/><path d="M12.404 17.526a.492.492 0 0 1-.141-.021l-.586-.171-.587.171a.503.503 0 0 1-.535-.174l-.373-.483-.575-.206a.501.501 0 0 1-.331-.454l-.021-.611-.342-.507a.503.503 0 0 1 0-.561l.343-.507.021-.611a.501.501 0 0 1 .331-.454l.575-.207.376-.483a.503.503 0 0 1 .535-.173l.585.171.585-.171a.498.498 0 0 1 .535.173l.376.484.574.206a.5.5 0 0 1 .331.454l.02.611.344.506a.505.505 0 0 1 0 .562l-.344.507-.02.611a.5.5 0 0 1-.331.454l-.574.206-.376.485a.5.5 0 0 1-.395.193m-.725-1.212c.047 0 .095.007.141.021l.398.116.257-.33a.497.497 0 0 1 .225-.164l.392-.141.014-.417a.506.506 0 0 1 .086-.265l.234-.345-.234-.345a.506.506 0 0 1-.086-.265l-.014-.417-.392-.141a.503.503 0 0 1-.225-.163l-.257-.331-.398.116a.498.498 0 0 1-.281 0l-.398-.116-.257.331a.506.506 0 0 1-.226.163l-.393.141-.014.417a.505.505 0 0 1-.086.264l-.234.347.234.346a.505.505 0 0 1 .086.264l.014.417.393.141c.09.032.167.09.227.164l.255.329.4-.115a.44.44 0 0 1 .139-.022"/><path d="M13.346 18.822a.496.496 0 0 1-.399-.2l-.834-1.11a.497.497 0 0 1 .1-.699.497.497 0 0 1 .699.1l.834 1.11a.497.497 0 0 1-.4.799M10.012 18.822a.489.489 0 0 1-.3-.101.498.498 0 0 1-.1-.699l.834-1.11a.498.498 0 0 1 .699-.1.498.498 0 0 1 .1.699l-.834 1.11a.496.496 0 0 1-.399.201M6.5 7h-6a.5.5 0 0 1 0-1H6V.5a.5.5 0 0 1 1 0v6a.5.5 0 0 1-.5.5"/><path d="M16.832 21.529H.5a.5.5 0 0 1-.5-.5V6.5c0-.133.053-.26.146-.354l6-6A.5.5 0 0 1 6.5 0h10.332a.5.5 0 0 1 .5.5v20.529a.5.5 0 0 1-.5.5M1 20.529h15.332V1H6.707L1 6.708v13.821z"/></g></svg>