<svg xmlns="http://www.w3.org/2000/svg" width="71.761" height="72.044" viewBox="13.95 4.032 71.761 72.044"><path d="M82.379 4.032H59.432a3.331 3.331 0 1 0 0 6.662h15.275L42.016 43.386a3.33 3.33 0 0 0 2.355 5.687c.852 0 1.705-.326 2.355-.976l32.321-32.322v14.536a3.33 3.33 0 1 0 6.663 0V7.363a3.33 3.33 0 0 0-3.331-3.331z"/><path d="M70.857 37.581a3.33 3.33 0 0 0-3.332 3.331v26.281c0 1.204-1.017 2.221-2.221 2.221H22.833c-1.204 0-2.221-1.017-2.221-2.221V24.722c0-1.204 1.017-2.221 2.221-2.221h26.374a3.332 3.332 0 1 0 0-6.663H22.833c-4.898 0-8.883 3.985-8.883 8.883v42.472c0 4.898 3.985 8.883 8.883 8.883h42.472c4.898 0 8.883-3.984 8.883-8.883V40.912a3.331 3.331 0 0 0-3.331-3.331z"/></svg>