<svg xmlns="http://www.w3.org/2000/svg" width="478.205" height="551.014" viewBox="66.898 43.99 478.205 551.014" fill="#052b97"><path d="M221.789 390.755h10.153c5.166 0 9.676-.637 13.519-1.903 3.85-1.267 7.038-3.036 9.565-5.318a21.228 21.228 0 0 0 5.667-8.176c1.248-3.17 1.873-6.659 1.873-10.472 0-3.598-.6-6.921-1.793-9.994a20.506 20.506 0 0 0-5.526-7.938c-2.497-2.221-5.673-3.953-9.542-5.214-3.868-1.243-8.458-1.867-13.764-1.867H205.76v77.546h16.028v-26.664zm0-38.696h10.153c2.491 0 4.651.3 6.469.906 1.818.605 3.323 1.469 4.517 2.595a10.618 10.618 0 0 1 2.674 4.063c.588 1.579.881 3.335.881 5.257 0 4.21-1.163 7.521-3.5 9.945-2.332 2.424-6.01 3.635-11.034 3.635h-10.16v-26.401zM322.383 414.525c4.878-1.922 9.058-4.59 12.534-8.012 3.477-3.42 6.163-7.509 8.066-12.264 1.903-4.755 2.864-9.969 2.864-15.636 0-5.63-.961-10.808-2.864-15.551-1.91-4.73-4.597-8.819-8.066-12.264-3.47-3.446-7.656-6.12-12.534-8.042-4.877-1.921-10.293-2.882-16.242-2.882h-29.823v77.546h29.817c5.955 0 11.371-.967 16.248-2.895zm-29.926-62.081h13.678c3.635 0 6.885.6 9.755 1.818 2.864 1.206 5.3 2.931 7.289 5.177 1.995 2.246 3.525 4.982 4.597 8.238 1.07 3.237 1.603 6.885 1.603 10.949 0 4.1-.532 7.772-1.603 11.01-1.071 3.237-2.602 5.998-4.597 8.261-1.989 2.259-4.431 3.979-7.289 5.178-2.87 1.193-6.12 1.793-9.755 1.793h-13.678v-52.424zM377.341 386.471h27.894v-12.607h-27.894v-21.42h33.237v-12.565h-49.376v77.541h16.139z"/><path d="M545.103 285.075l-42.143-31.139h-.429v-77.792h-.03L367.451 43.99l-.067.067H109.358v210.069l-42.46 32.081V461.98h42.46v133.024h393.18V461.979H544.998v-54.866l.105-122.038zm-69.316-108.961l-108.514-.122.11-105.833 108.404 105.955zM348.461 62.992l-.135 131.917 135.276.153v90.111H128.288V62.992h220.173zm135.136 513.083H128.288V461.979H483.59v114.096h.007zm42.46-133.024H85.827V304.108h440.23v138.943z"/></svg>