<svg xmlns="http://www.w3.org/2000/svg" xmlns:xlink="http://www.w3.org/1999/xlink" width="51" height="81.5" viewBox="0 0 51 81.5"><defs><path id="a" d="M0 0h51v81.5H0z"/></defs><clipPath id="b"><use xlink:href="#a" overflow="visible"/></clipPath><path clip-path="url(#b)" fill="#FFF" d="M25.5 0C11.4 0 0 11.4 0 25.5V56c0 14.1 11.4 25.5 25.5 25.5S51 70.1 51 56V25.5C51 11.5 39.5 0 25.5 0"/><g><defs><path id="c" d="M0 0h51v81.5H0z"/></defs><clipPath id="d"><use xlink:href="#c" overflow="visible"/></clipPath><path clip-path="url(#d)" fill="#052b97" d="M25.5 0C11.4 0 0 11.4 0 25.5V56c0 14.1 11.4 25.5 25.5 25.5S51 70.1 51 56V25.5C51 11.5 39.5 0 25.5 0M48 56.1c0 12.4-10.1 22.5-22.5 22.5S3 68.5 3 56.1V25.5C3 13.1 13.1 3 25.5 3S48 13.1 48 25.5v30.6z"/></g><g><defs><path id="e" d="M0 0h51v81.5H0z"/></defs><clipPath id="f"><use xlink:href="#e" overflow="visible"/></clipPath><path clip-path="url(#f)" fill="#052b97" d="M25.5 18.8c-.8 0-1.5.7-1.5 1.5v11.3c0 .8.7 1.5 1.5 1.5s1.5-.7 1.5-1.5V20.3c0-.8-.7-1.5-1.5-1.5"/></g></svg>